<svg width="33" height="32" viewBox="0 0 33 32" fill="none" xmlns="http://www.w3.org/2000/svg">
<rect x="0.172363" width="32" height="32" rx="16" fill="#00703A"/>
<path d="M21.856 16C21.856 16.1771 21.783 16.3333 21.6372 16.4688L17.606 20.4922C17.4705 20.6224 17.3169 20.6875 17.145 20.6875C16.9731 20.6875 16.8273 20.6302 16.7075 20.5156C16.5929 20.401 16.5356 20.2552 16.5356 20.0781C16.5356 19.9948 16.5487 19.9141 16.5747 19.8359C16.606 19.7578 16.6502 19.6927 16.7075 19.6406L17.7856 18.5234L20.4263 16.1484L20.5669 16.4844L18.4888 16.6328H11.1138C10.9263 16.6328 10.7752 16.5729 10.6606 16.4531C10.5461 16.3333 10.4888 16.1823 10.4888 16C10.4888 15.8177 10.5461 15.6667 10.6606 15.5469C10.7752 15.4271 10.9263 15.3672 11.1138 15.3672H18.4888L20.5669 15.5156L20.4263 15.8594L17.7856 13.4766L16.7075 12.3594C16.6502 12.3073 16.606 12.2422 16.5747 12.1641C16.5487 12.0859 16.5356 12.0052 16.5356 11.9219C16.5356 11.7448 16.5929 11.599 16.7075 11.4844C16.8273 11.3698 16.9731 11.3125 17.145 11.3125C17.3169 11.3125 17.4705 11.3776 17.606 11.5078L21.6372 15.5312C21.783 15.6667 21.856 15.8229 21.856 16Z" fill="white"/>
</svg>
